<svg width="24" height="25" fill="none" xmlns="http://www.w3.org/2000/svg"><path fill-rule="evenodd" clip-rule="evenodd" d="m21.295 22.06-1.079-4.022a.96.96 0 0 1 .076-.68c.94-1.888 1.255-4.142.676-6.492-.787-3.182-3.27-5.737-6.444-6.58a10.106 10.106 0 0 0-2.545-.337c-5.93 0-10.562 5.564-8.962 11.755.742 2.864 3.8 5.83 6.677 6.528.778.19 1.543.278 2.285.278 1.595 0 3.09-.41 4.402-1.118a.989.989 0 0 1 .468-.124c.08 0 .16.01.239.031l3.915 1.048a.237.237 0 0 0 .292-.287Zm-2.316-3.69.61 2.275-2.17-.579a2.243 2.243 0 0 0-.57-.075c-.371 0-.747.097-1.083.279a7.892 7.892 0 0 1-3.787.959 8.465 8.465 0 0 1-1.984-.244c-2.435-.592-5.118-3.208-5.736-5.603-.646-2.501-.137-5.069 1.392-7.044a7.95 7.95 0 0 1 6.328-3.107c.734 0 1.48.097 2.219.296a7.767 7.767 0 0 1 5.528 5.648c.482 1.944.283 3.884-.579 5.612a2.236 2.236 0 0 0-.168 1.582Z" fill="#333"/><path fill-rule="evenodd" clip-rule="evenodd" d="M3.361 15.615c-1.54-5.96 2.915-11.31 8.618-11.31a9.75 9.75 0 0 1 2.455.324c3.046.81 5.433 3.265 6.188 6.322.559 2.268.255 4.435-.649 6.247a1.315 1.315 0 0 0-.1.934l1.024 3.818-3.714-.994h-.002a1.242 1.242 0 0 0-.332-.043c-.223 0-.445.06-.638.166a8.889 8.889 0 0 1-4.232 1.075c-.714 0-1.45-.085-2.2-.268-1.362-.33-2.791-1.206-3.976-2.36-1.184-1.155-2.091-2.558-2.442-3.91ZM11.98 5.587a7.594 7.594 0 0 0-6.047 2.968c-1.46 1.886-1.948 4.34-1.329 6.738.288 1.116 1.07 2.315 2.091 3.312 1.021.997 2.247 1.758 3.385 2.035a8.109 8.109 0 0 0 1.9.233c1.275 0 2.49-.308 3.618-.917a2.65 2.65 0 0 1 1.252-.32c.227 0 .448.03.66.086h.002l1.575.42-.45-1.68a2.592 2.592 0 0 1 .193-1.834c.822-1.649 1.014-3.502.552-5.367a7.41 7.41 0 0 0-5.275-5.39h-.001a8.176 8.176 0 0 0-2.126-.284Z" fill="#333"/><path fill-rule="evenodd" clip-rule="evenodd" d="M11.979 3.594c-6.158 0-10.966 5.778-9.307 12.2.392 1.51 1.385 3.022 2.635 4.24 1.25 1.22 2.787 2.175 4.303 2.543a9.965 9.965 0 0 0 2.369.289 9.601 9.601 0 0 0 4.57-1.16l.002-.002a.635.635 0 0 1 .298-.08c.053 0 .1.006.143.018l3.93 1.051.011.002.003.001a.593.593 0 0 0 .703-.725l-1.079-4.025v-.002a.605.605 0 0 1 .05-.428c.978-1.961 1.302-4.302.703-6.736-.817-3.306-3.397-5.96-6.697-6.839h-.002a10.462 10.462 0 0 0-2.635-.347Zm0 .711c-5.703 0-10.158 5.35-8.618 11.31.351 1.353 1.258 2.756 2.442 3.91 1.185 1.155 2.614 2.03 3.975 2.361.75.183 1.487.268 2.201.268a8.889 8.889 0 0 0 4.232-1.075c.194-.105.415-.166.638-.166.106 0 .217.011.332.043h.002l3.714.994-1.024-3.818v-.001a1.315 1.315 0 0 1 .1-.933c.904-1.812 1.208-3.98.65-6.247-.756-3.057-3.143-5.511-6.19-6.322a9.75 9.75 0 0 0-2.454-.324Z" fill="#333"/></svg>