<svg width="101" height="36" fill="none" xmlns="http://www.w3.org/2000/svg"><path d="M7.771 5.893c-1.945.814-4.083 3.115-4.759 6.002-.855 3.659 2.704 5.206 2.996 4.698.344-.596-.638-.797-.84-2.695-.26-2.452.88-5.192 2.314-6.394.266-.223.254.088.254.663 0 1.028-.057 10.257-.057 12.184 0 2.606-.108 3.429-.301 4.242-.196.824-.511 1.381-.272 1.596.266.24 1.405-.331 2.064-1.25.79-1.104 1.066-2.429 1.116-3.868.06-1.734.058-4.486.06-6.056.003-1.44.024-5.655-.025-8.19-.012-.622-1.736-1.274-2.55-.933v.001Zm69.076 12.198c-.063 1.355-.363 2.414-.735 3.16-.721 1.447-2.216 1.896-2.851-.183-.346-1.133-.363-3.026-.114-4.607.253-1.611.96-2.828 2.131-2.718 1.155.108 1.696 1.596 1.569 4.347Zm-19.469 8.406c-.016 2.252-.37 4.226-1.13 4.8-1.077.812-2.526.202-2.226-1.44.266-1.454 1.52-2.94 3.36-4.753 0 0 .003.413-.004 1.393Zm-.294-8.42c-.066 1.235-.386 2.474-.735 3.175-.72 1.446-2.227 1.898-2.851-.184-.427-1.422-.325-3.264-.113-4.424.274-1.505.938-2.901 2.13-2.901 1.16 0 1.732 1.272 1.569 4.335Zm-11.278-.018c-.07 1.307-.326 2.4-.735 3.193-.74 1.436-2.205 1.892-2.851-.184-.466-1.496-.307-3.537-.113-4.64.287-1.635 1.007-2.795 2.13-2.685 1.155.113 1.716 1.596 1.569 4.316Zm51.684 1.526c-.282 0-.41.291-.517.78-.37 1.703-.758 2.088-1.259 2.088-.56 0-1.062-.843-1.192-2.53-.101-1.328-.085-3.77.045-6.2.027-.5-.111-.994-1.45-1.48-.576-.21-1.414-.518-1.831.49-1.178 2.843-1.64 5.101-1.748 6.019-.005.047-.064.057-.074-.054-.07-.735-.224-2.07-.243-4.875-.004-.547-.12-1.013-.724-1.394-.391-.248-1.582-.685-2.01-.165-.371.426-.801 1.572-1.248 2.93-.363 1.105-.616 1.852-.616 1.852s.004-2.98.009-4.11c.002-.426-.29-.568-.379-.594-.397-.115-1.179-.307-1.51-.307-.41 0-.51.229-.51.562 0 .044-.065 3.923-.065 6.635l.001.383c-.226 1.246-.96 2.938-1.76 2.938s-1.177-.707-1.177-3.94c0-1.887.057-2.707.085-4.071.016-.786.047-1.39.045-1.526-.006-.42-.732-.632-1.07-.71a3.162 3.162 0 0 0-.865-.096c-.326.018-.556.232-.556.526l.002.458c-.42-.66-1.096-1.12-1.545-1.252-1.21-.36-2.473-.041-3.426 1.292-.757 1.059-1.214 2.258-1.393 3.982-.132 1.26-.089 2.538.145 3.618-.282 1.22-.806 1.72-1.38 1.72-.832 0-1.435-1.36-1.365-3.709.046-1.545.356-2.63.694-4.199.144-.669.027-1.019-.267-1.355-.27-.307-.843-.465-1.669-.271-.587.138-1.428.286-2.196.4 0 0 .046-.185.084-.511.2-1.712-1.66-1.573-2.253-1.026-.354.326-.595.71-.687 1.403-.145 1.098.75 1.616.75 1.616-.293 1.345-1.013 3.103-1.757 4.373-.398.68-.703 1.185-1.096 1.721l-.004-.598c-.009-2.828.029-5.054.046-5.856.016-.786.047-1.373.045-1.51-.004-.307-.183-.423-.556-.57-.33-.13-.72-.22-1.125-.251-.51-.04-.818.23-.81.551.002.06.002.432.002.432-.42-.66-1.096-1.12-1.545-1.252-1.21-.36-2.473-.041-3.426 1.292-.757 1.059-1.253 2.545-1.393 3.969-.131 1.327-.107 2.454.071 3.404-.192.952-.745 1.946-1.371 1.946-.8 0-1.255-.707-1.255-3.94 0-1.887.057-2.707.084-4.07.017-.787.048-1.39.046-1.527-.006-.42-.732-.632-1.07-.71a3.11 3.11 0 0 0-.893-.095c-.31.024-.526.3-.526.507v.476c-.42-.66-1.096-1.12-1.545-1.252-1.21-.36-2.466-.036-3.426 1.292-.626.866-1.133 1.825-1.393 3.95a13.304 13.304 0 0 0-.105 1.726c-.25 1.527-1.351 3.285-2.253 3.285-.527 0-1.03-1.023-1.03-3.204 0-2.905.18-7.04.21-7.44 0 0 1.14-.019 1.36-.021.568-.007 1.083.007 1.84-.032.38-.02.745-1.382.353-1.55-.177-.076-1.432-.143-1.93-.154-.418-.01-1.583-.096-1.583-.096s.105-2.745.13-3.035c.02-.242-.293-.366-.472-.442-.436-.184-.827-.272-1.29-.368-.638-.132-.928-.003-.984.537-.086.818-.13 3.215-.13 3.215-.469 0-2.07-.091-2.54-.091-.435 0-.905 1.874-.303 1.897.693.027 1.901.05 2.702.074 0 0-.036 4.204-.036 5.502l.002.4c-.441 2.297-1.993 3.538-1.993 3.538.333-1.52-.348-2.66-1.575-3.627-.452-.356-1.344-1.03-2.342-1.768 0 0 .578-.57 1.09-1.716.364-.812.38-1.742-.512-1.947-1.473-.338-2.688.744-3.05 1.899-.281.895-.131 1.559.419 2.249.04.05.083.101.128.153-.332.641-.79 1.504-1.176 2.174-1.074 1.858-1.886 3.328-2.499 3.328-.49 0-.483-1.493-.483-2.89 0-1.204.089-3.015.16-4.89.023-.62-.287-.973-.806-1.293-.316-.194-.99-.577-1.38-.577-.585 0-2.27.08-3.863 4.687-.2.58-.595 1.639-.595 1.639l.034-5.54c0-.13-.07-.256-.228-.342-.268-.146-.985-.444-1.622-.444-.304 0-.455.142-.455.423l-.056 8.668c0 .658.017 1.427.082 1.762.065.337.17.61.3.773a.86.86 0 0 0 .528.338c.231.048 1.494.21 1.56-.273.079-.578.082-1.204.745-3.538 1.033-3.634 2.38-5.407 3.012-6.036.111-.11.238-.117.231.063-.027.797-.122 2.787-.186 4.479-.171 4.525.652 5.364 1.829 5.364.9 0 2.169-.894 3.53-3.158.847-1.411 1.67-2.795 2.262-3.792.412.382.875.793 1.337 1.232 1.075 1.02 1.427 1.988 1.193 2.907-.179.703-.853 1.427-2.053.723-.35-.205-.499-.364-.85-.595-.19-.125-.477-.162-.65-.032-.45.34-.707.77-.853 1.303-.143.52.377.794.916 1.034.463.206 1.46.393 2.096.415 2.478.082 4.463-1.197 5.844-4.496.248 2.85 1.3 4.462 3.13 4.462 1.222 0 2.448-1.58 2.984-3.135.154.633.381 1.184.675 1.65 1.41 2.233 4.143 1.753 5.517-.143.424-.586.489-.796.489-.796.2 1.79 1.642 2.415 2.467 2.415.925 0 1.88-.437 2.548-1.943.079.163.164.32.258.467 1.409 2.233 4.142 1.753 5.516-.143l.17-.242.04 1.176-1.264 1.16c-2.117 1.94-3.726 3.414-3.844 5.13-.152 2.187 1.622 3 2.964 3.106 1.425.114 2.646-.674 3.396-1.776.66-.97 1.092-3.057 1.06-5.119-.013-.825-.033-1.875-.05-3a24.042 24.042 0 0 0 2.354-3.234c.841-1.393 1.742-3.263 2.204-4.719 0 0 .783.007 1.618-.048.268-.017.345.038.295.233-.06.237-1.056 4.08-.146 6.639.622 1.752 2.025 2.316 2.856 2.316.974 0 1.905-.735 2.404-1.827.06.121.123.24.192.348 1.409 2.233 4.133 1.75 5.516-.144.312-.427.49-.796.49-.796.296 1.853 1.737 2.425 2.562 2.425.86 0 1.675-.352 2.337-1.919.028.69.072 1.254.14 1.432.042.108.287.245.464.31.787.292 1.589.154 1.886.095.205-.042.365-.207.387-.633.058-1.118.022-2.997.361-4.393.57-2.343 1.1-3.252 1.352-3.702.141-.252.3-.294.306-.027.012.54.038 2.125.259 4.256.162 1.566.378 2.492.544 2.785.475.838 1.06.878 1.537.878.304 0 .939-.084.882-.617-.028-.26.02-1.867.582-4.175.366-1.508.977-2.87 1.197-3.368.081-.184.119-.039.118-.01-.047 1.038-.15 4.434.272 6.29.573 2.517 2.232 2.798 2.81 2.798 1.234 0 2.243-.938 2.583-3.408.082-.594-.04-1.053-.403-1.053" fill="#262626"/></svg>