<svg width="22" height="22" fill="none" xmlns="http://www.w3.org/2000/svg"><path fill-rule="evenodd" clip-rule="evenodd" d="M19.626 19.315a.42.42 0 0 0 0-.596l-3.731-3.72a7.926 7.926 0 0 0 2.05-5.32c0-4.401-3.582-7.972-7.996-7.972-4.415 0-7.996 3.57-7.996 7.972 0 4.4 3.581 7.97 7.996 7.97 2.062 0 3.93-.784 5.348-2.06l3.736 3.725a.42.42 0 0 0 .593.001ZM2.795 9.68c0-3.931 3.21-7.133 7.154-7.133 3.943 0 7.154 3.202 7.154 7.133 0 3.93-3.211 7.132-7.154 7.132S2.795 13.61 2.795 9.679Z" fill="#333" stroke="#333" stroke-width=".852" stroke-linecap="round" stroke-linejoin="round"/></svg>