<svg width="18" height="11" fill="none" xmlns="http://www.w3.org/2000/svg"><path fill-rule="evenodd" clip-rule="evenodd" d="M2.288 6.25c.625 0 1.03.393 1.03 1v2.5c0 .607-.405 1-1.03 1h-1.03c-.625 0-1.03-.393-1.03-1v-2.5c0-.607.405-1 1.03-1h1.03Zm13.91-5.5c.624 0 1.03.393 1.03 1v8c0 .607-.406 1-1.03 1h-1.031c-.625 0-1.03-.393-1.03-1v-8c0-.607.405-1 1.03-1h1.03Zm-4.637 2c.625 0 1.03.393 1.03 1v6c0 .607-.405 1-1.03 1h-1.03c-.625 0-1.03-.393-1.03-1v-6c0-.607.405-1 1.03-1h1.03Zm-4.636 2c.625 0 1.03.393 1.03 1v4c0 .607-.405 1-1.03 1h-1.03c-.626 0-1.031-.393-1.031-1v-4c0-.607.405-1 1.03-1h1.03Z" fill="#000"/></svg>