<svg width="16" height="12" fill="none" xmlns="http://www.w3.org/2000/svg"><path fill-rule="evenodd" clip-rule="evenodd" d="M7.864 2.545a8.64 8.64 0 0 1 5.953 2.378c.121.118.315.116.434-.003l1.156-1.167a.322.322 0 0 0-.003-.456 10.897 10.897 0 0 0-15.08 0 .322.322 0 0 0-.003.456L1.477 4.92c.12.12.313.12.434.003a8.641 8.641 0 0 1 5.953-2.378Zm0 3.795c1.218 0 2.392.453 3.294 1.27a.31.31 0 0 0 .434-.006l1.154-1.166a.322.322 0 0 0-.004-.46 7.16 7.16 0 0 0-9.753 0 .322.322 0 0 0-.004.46l1.154 1.166a.31.31 0 0 0 .434.006 4.907 4.907 0 0 1 3.291-1.27Zm2.22 2.785a.314.314 0 0 0-.01-.457 3.422 3.422 0 0 0-4.42 0 .314.314 0 0 0-.01.457l1.999 2.015a.312.312 0 0 0 .443 0l1.997-2.015Z" fill="#000"/></svg>